<svg id="Layer_1" data-name="Layer 1" xmlns="http://www.w3.org/2000/svg" width="733.04" height="197.02" viewBox="0 0 733.04 197.02"><defs><style>.cls-1,.cls-5{fill:#3d4094;}.cls-2{fill:#393185;}.cls-3{fill:#ed3338;}.cls-4,.cls-6{fill:#e31e24;}.cls-5,.cls-6,.cls-7,.cls-8,.cls-9{fill-rule:evenodd;}.cls-10,.cls-7{fill:#fff;}.cls-8{fill:none;}.cls-9{fill:#ffcc29;}.cls-11{fill:#ee242b;}.cls-12{fill:#1d1d1b;stroke:#000;stroke-miterlimit:10;}</style></defs><title>parul-university-logo_freelogovectors.net</title><path class="cls-1" d="M96.75,386.6a1.92,1.92,0,0,0-1.49-.7c-1.35,2.57-2.63,5.36-3.87,8.35a24.27,24.27,0,0,1,0,7.07,12.39,12.39,0,0,1,1.84.43A7.93,7.93,0,0,1,98,405.69a12.55,12.55,0,0,1,1.06,6.91,33.62,33.62,0,0,1-1.38,6.77l16.41,5.28.7.23.08.73a3.39,3.39,0,0,0,1.51,2.34h0a4.5,4.5,0,0,0,1.84.76h0a3.24,3.24,0,0,0,1.76-.17,2.67,2.67,0,0,0,1.45-1.64l.33-.91,1,.18a3.63,3.63,0,0,0,3.47-.77,2.56,2.56,0,0,0,.59-1.13,3.1,3.1,0,0,0,0-1.39,3.66,3.66,0,0,0-2.52-2.65l-1.06-.36.34-1.07a3.13,3.13,0,0,0-.06-2.43,2.13,2.13,0,0,0-.9-.93,2.7,2.7,0,0,0-1.43-.32,4.81,4.81,0,0,0-3.18,1.63l-.54.56-.72-.31L110,414.15l-.84-.36.16-.89c1.18-6.43.71-11.19-1.15-14.54s-5-5.22-9.31-6.14L98,392l-.06-.86c-.13-2.31-.54-3.79-1.19-4.58m-.33-2.83a4.1,4.1,0,0,1,2.1,1.39,9.31,9.31,0,0,1,1.63,5c4.55,1.13,8,3.4,10,7.07s2.62,8.61,1.55,15.14l5.26,2.22a6.72,6.72,0,0,1,4.15-1.77,5,5,0,0,1,2.62.59,4.5,4.5,0,0,1,1.83,1.91,5,5,0,0,1,.44,3.13,5.81,5.81,0,0,1,3,3.92,5.35,5.35,0,0,1,0,2.39,4.81,4.81,0,0,1-1.13,2.15,5.44,5.44,0,0,1-4.66,1.59,4.78,4.78,0,0,1-2.33,2.11,5.47,5.47,0,0,1-3,.31h0a6.82,6.82,0,0,1-2.79-1.14h0a5.82,5.82,0,0,1-2.33-3.2l-16.84-5.42-1.09-.35.35-1.08a33,33,0,0,0,1.62-7.35,10.39,10.39,0,0,0-.81-5.67,5.71,5.71,0,0,0-3.49-2.82,10.17,10.17,0,0,0-1.6-.37,26.16,26.16,0,0,1-1.71,4.79,40.52,40.52,0,0,1-10.27,13l1,4.14a4.67,4.67,0,0,1,3.23,1.38,5.86,5.86,0,0,1,1.26,1.78,5.38,5.38,0,0,1,.49,2.23A5.66,5.66,0,0,1,82,435.64a4.85,4.85,0,0,1-.88,4.38,5.49,5.49,0,0,1-2,1.52,6.12,6.12,0,0,1-2.44.59,6,6,0,0,1-5-2.43,6.59,6.59,0,0,1-5-1.12,5.42,5.42,0,0,1-1.8-2.47,6.29,6.29,0,0,1-.31-3A6.51,6.51,0,0,1,66.85,429l-4.47-12.18-.26-.7.55-.51,7.8-7.37a22.3,22.3,0,0,1-3-.75,15.54,15.54,0,0,1-8.68-6.29A15.72,15.72,0,0,1,56.52,391a24.5,24.5,0,0,1,1-5.1l1.12-7.19a9,9,0,0,1-3.37-1.12,8.12,8.12,0,0,1-3.27-3.53,10.27,10.27,0,0,1-1-4.73,12.84,12.84,0,0,1,1.48-5.62c-3.67-8.47-4-14.29-2.38-18.4,1.69-4.3,5.42-6.66,9.71-8.18l.09,0a15.05,15.05,0,0,1,7.47-.43A12.37,12.37,0,0,1,73.87,341l-1.7,1.5a10.38,10.38,0,0,0-5.25-3.56,12.94,12.94,0,0,0-6.3.42c-3.72,1.32-6.93,3.31-8.32,6.85s-1,9.05,2.56,17.16l.24.53-.29.5a10.69,10.69,0,0,0-1.46,5.05,8,8,0,0,0,.75,3.68,5.83,5.83,0,0,0,2.36,2.56,7.35,7.35,0,0,0,3.57.92l1.29,0-.19,1.28-1.33,8.48,0,.17a22,22,0,0,0-1,4.7,13.58,13.58,0,0,0,1.87,8.69,13.34,13.34,0,0,0,7.45,5.36,23.87,23.87,0,0,0,5,1l2.51.22-1.84,1.73-9,8.49L69.28,429l.33.88-.8.48a4.3,4.3,0,0,0-2,3.1,4.18,4.18,0,0,0,.19,1.9,3.25,3.25,0,0,0,1,1.44,4.77,4.77,0,0,0,3.94.56l.8-.17.41.71a3.83,3.83,0,0,0,5,1.61,3.35,3.35,0,0,0,1.14-.89,2.85,2.85,0,0,0,.23-3l-.42-1,.95-.49c1.87-.95,2.56-2.16,2.57-3.25a3.11,3.11,0,0,0-.29-1.28,3.49,3.49,0,0,0-.77-1.08,2,2,0,0,0-2.06-.65l-1.23.53L78,427.07l-1.4-5.87-.16-.68.52-.45q7.21-6.21,10.23-12.69a22.33,22.33,0,0,0,1.93-13.09l.08-.61a87.47,87.47,0,0,1,6.9-13.74,37.27,37.27,0,0,1,8.39-9.6l.84-.65.71.79,10.63,12,.53.6-.37.69a5.51,5.51,0,0,0-.35,3.79,4,4,0,0,0,.87,1.74,2.2,2.2,0,0,0,1.34.76,4.12,4.12,0,0,0,2.74-.82l.57-.35.58.32a6.68,6.68,0,0,0,4.09,1.06,2.35,2.35,0,0,0,1.37-.68,2.62,2.62,0,0,0,.64-1.3,3.48,3.48,0,0,0-.39-2.35l-.38-.65.45-.6a6.4,6.4,0,0,0,1.53-3.73,2.76,2.76,0,0,0-.47-1.61,2.49,2.49,0,0,0-1.22-.9,3.72,3.72,0,0,0-2.5.06l-.89.31-.46-.82-11-19.29-.14-.55c0-.13,0-.28,0-.43a18.8,18.8,0,0,0-.19-2.24,17.28,17.28,0,0,0-.44-2.12,16.88,16.88,0,0,0-5.73-8.7l1.43-1.76a19.08,19.08,0,0,1,6.49,9.87,19.35,19.35,0,0,1,.5,2.38,105.74,105.74,0,0,0,6.27-15.86,113.39,113.39,0,0,1,5.1-13.43h0l.31-.67h.73a4.46,4.46,0,0,0,2.86-.93,4.15,4.15,0,0,0,1.3-1.79,3.53,3.53,0,0,0,.15-2.05,3.1,3.1,0,0,0-1.16-1.73l-.75-.56.41-.84a4,4,0,0,0,0-4.07,3.42,3.42,0,0,0-1.16-1.08,3.49,3.49,0,0,0-1.51-.45,3.72,3.72,0,0,0-3.35,1.85l-.76,1.16-1-1a2.84,2.84,0,0,0-3.07-.73h0a3.3,3.3,0,0,0-1.19.77,3.4,3.4,0,0,0-.8,1.24c-.46,1.22-.24,2.83,1.22,4.43l.58.63-.45.74-7.61,12.34-1.93-1.19,7.18-11.65a6.24,6.24,0,0,1-1.12-6.09,5.59,5.59,0,0,1,1.33-2.06,5.46,5.46,0,0,1,2-1.29h0a5,5,0,0,1,4.47.46,5.75,5.75,0,0,1,9,.62,6,6,0,0,1,.55,5.54,5.26,5.26,0,0,1,1.32,2.42,5.9,5.9,0,0,1-.22,3.35,6.39,6.39,0,0,1-2,2.79,6.52,6.52,0,0,1-3.53,1.39A118.21,118.21,0,0,0,123.65,340c-2.15,6.42-4.35,13-7.77,18.6l10,17.49a5.77,5.77,0,0,1,3.08.19,4.77,4.77,0,0,1,2.31,1.74,5,5,0,0,1,.88,2.92,8.24,8.24,0,0,1-1.57,4.53,5.71,5.71,0,0,1,.32,3.23,4.89,4.89,0,0,1-1.23,2.45,4.65,4.65,0,0,1-2.65,1.35,8.39,8.39,0,0,1-5-1,5.93,5.93,0,0,1-3.71.81,4.43,4.43,0,0,1-2.72-1.5,6.43,6.43,0,0,1-1.37-2.69,8.08,8.08,0,0,1,.22-4.67L105,372.81a36.07,36.07,0,0,0-7,8.35C97.45,382,96.93,382.87,96.42,383.77Zm-29-32.4-2.3,12.08-2.22.08c-.37-1.39-.86-2.94-1.35-4.5-1-3.18-2-6.36-2.1-8.6v-.18a4,4,0,0,1,6.07-3.17h0a4.18,4.18,0,0,1,1.91,4.16Zm-3.66,7.08L65.12,351a2,2,0,0,0-.82-2h0a1.86,1.86,0,0,0-.69-.22,1.91,1.91,0,0,0-.75.09,1.82,1.82,0,0,0-1.19,1.54,40.69,40.69,0,0,0,2,7.92Zm16.16-9.19h0c.26.79.54,1.56.83,2.31s.63,1.58,1,2.38a71.76,71.76,0,0,0,8.1,13.54l.41.54-.29.62L78.63,392.81v0A7.93,7.93,0,0,1,74.13,397a5.38,5.38,0,0,1-2.91.16,4.68,4.68,0,0,1-2.51-1.49,7,7,0,0,1-1.48-5.24v-.17a169,169,0,0,1,3.87-16.54c2.24-8.32,4.35-16.12,4-23.42l2.27-.1c.38,7.66-1.77,15.62-4.06,24.1-1.41,5.24-2.88,10.69-3.82,16.32a4.81,4.81,0,0,0,.91,3.54,2.52,2.52,0,0,0,1.32.79,3.22,3.22,0,0,0,1.7-.11,5.66,5.66,0,0,0,3.15-3h0l11-23.51a73.52,73.52,0,0,1-7.94-13.42c-.38-.85-.73-1.68-1-2.49s-.62-1.66-.87-2.42h0Z" transform="translate(-8.48 -276.49)"/><path class="cls-2" d="M76.85,441.47a94.36,94.36,0,0,1-28.51,1,132.37,132.37,0,0,1-23.56-5,46.17,46.17,0,0,0,4.32,5.69,50.36,50.36,0,0,0,9.5,8.19l2,1.34-2.13,1.08a61.64,61.64,0,0,1-11.94,4.66c-2,.54-3.92,1-5.92,1.32,14.71,4.5,28.85,6.72,42.32,6.33a92.13,92.13,0,0,0,40.5-10.34l-1.76-.76q-2.24-1-4.37-2h0a164.5,164.5,0,0,1-20.43-11.55" transform="translate(-8.48 -276.49)"/><path class="cls-2" d="M48.65,439.73a91.41,91.41,0,0,0,28.23-1.13l.56-.11.49.33a159.56,159.56,0,0,0,20.56,11.66h0q2.16,1,4.3,2t4.38,1.88h0l2.73,1.09-2.57,1.44A94.84,94.84,0,0,1,63,468.94c-13,.37-26.58-1.62-40.66-5.69a77,77,0,0,1-13.85-5.39,65.3,65.3,0,0,0,17.3-2.08,58.47,58.47,0,0,0,9.28-3.43A51.52,51.52,0,0,1,27,445.08a48.2,48.2,0,0,1-4-5.16,81.93,81.93,0,0,1-4.23-7.39c2.45.9,4.89,1.74,7.39,2.49a128.08,128.08,0,0,0,22.5,4.71m28.21,1.74a94.44,94.44,0,0,1-28.52,1,132.37,132.37,0,0,1-23.56-5,46.17,46.17,0,0,0,4.32,5.69,50.39,50.39,0,0,0,9.5,8.2l2,1.33-2.13,1.09a62.23,62.23,0,0,1-11.94,4.65c-2,.54-3.92,1-5.92,1.32,14.72,4.5,28.85,6.72,42.33,6.34a92.27,92.27,0,0,0,40.49-10.35l-1.76-.76q-2.24-1-4.37-2h0A162.4,162.4,0,0,1,76.86,441.47Z" transform="translate(-8.48 -276.49)"/><path class="cls-2" d="M309.58,442.09a94.36,94.36,0,0,0,28.51,1.05,133.23,133.23,0,0,0,23.56-5,46.94,46.94,0,0,1-4.32,5.69,50.73,50.73,0,0,1-9.5,8.19l-2,1.33,2.13,1.09a62.49,62.49,0,0,0,11.94,4.65c1.95.54,3.92,1,5.92,1.32-14.71,4.5-28.85,6.72-42.32,6.34A92.27,92.27,0,0,1,283,456.41l1.76-.76q2.24-1,4.37-2h0a162,162,0,0,0,20.43-11.55" transform="translate(-8.48 -276.49)"/><path class="cls-2" d="M337.78,440.35a91.41,91.41,0,0,1-28.23-1.13l-.56-.11-.49.33A160.11,160.11,0,0,1,288,451.1h0c-1.44.69-2.87,1.34-4.3,2s-3,1.29-4.38,1.87h0l-2.73,1.1,2.57,1.44a94.83,94.83,0,0,0,44.35,12.07c13,.37,26.58-1.61,40.66-5.68A77,77,0,0,0,378,458.49a65.31,65.31,0,0,1-17.3-2.09,59.29,59.29,0,0,1-9.27-3.42,52.39,52.39,0,0,0,8.05-7.27,47.88,47.88,0,0,0,4-5.17,79.69,79.69,0,0,0,4.24-7.39c-2.45.9-4.89,1.75-7.39,2.49a128.08,128.08,0,0,1-22.5,4.71m-28.2,1.75a94.35,94.35,0,0,0,28.51,1,133.23,133.23,0,0,0,23.56-5,46.17,46.17,0,0,1-4.32,5.69,50.36,50.36,0,0,1-9.5,8.19l-2,1.33,2.13,1.09a61.83,61.83,0,0,0,11.94,4.65c1.95.54,3.92,1,5.92,1.32-14.71,4.5-28.85,6.72-42.32,6.34A92.4,92.4,0,0,1,283,456.42l1.76-.77q2.24-1,4.37-2h0A163.18,163.18,0,0,0,309.58,442.1Z" transform="translate(-8.48 -276.49)"/><path class="cls-1" d="M290.73,386.6a1.92,1.92,0,0,1,1.5-.7q2,3.86,3.86,8.35a24.27,24.27,0,0,0,0,7.07,12.53,12.53,0,0,0-1.85.43,8,8,0,0,0-4.82,3.94,12.64,12.64,0,0,0-1.06,6.91,33.71,33.71,0,0,0,1.39,6.77l-16.41,5.28-.71.23-.08.73a3.33,3.33,0,0,1-1.51,2.34h0a4.56,4.56,0,0,1-1.84.76h0a3.24,3.24,0,0,1-1.76-.17A2.68,2.68,0,0,1,266,426.9l-.33-.91-.95.18a3.61,3.61,0,0,1-3.46-.77,2.48,2.48,0,0,1-.6-1.13,3.26,3.26,0,0,1,0-1.39,3.65,3.65,0,0,1,2.51-2.65l1.07-.36-.34-1.07a3.18,3.18,0,0,1,0-2.43,2.18,2.18,0,0,1,.9-.93,2.73,2.73,0,0,1,1.44-.32,4.79,4.79,0,0,1,3.17,1.63l.54.56.72-.31,6.77-2.85.84-.36-.16-.89c-1.17-6.43-.7-11.19,1.15-14.54s5-5.22,9.31-6.14l.85-.18.05-.86c.14-2.31.54-3.79,1.19-4.58m.34-2.83a4,4,0,0,0-2.1,1.39,9.31,9.31,0,0,0-1.64,5c-4.54,1.13-7.95,3.4-10,7.07s-2.63,8.61-1.56,15.14l-5.26,2.22a6.72,6.72,0,0,0-4.14-1.77,5,5,0,0,0-2.62.59,4.52,4.52,0,0,0-1.84,1.91,5.11,5.11,0,0,0-.43,3.13,5.82,5.82,0,0,0-3.06,3.92,5.5,5.5,0,0,0,0,2.39,4.81,4.81,0,0,0,1.13,2.15,5.46,5.46,0,0,0,4.67,1.59,4.78,4.78,0,0,0,2.33,2.11,5.47,5.47,0,0,0,3,.31h0a6.82,6.82,0,0,0,2.79-1.14h0a5.81,5.81,0,0,0,2.32-3.2l16.85-5.42,1.08-.35-.35-1.08a33.55,33.55,0,0,1-1.62-7.35,10.48,10.48,0,0,1,.81-5.67,5.71,5.71,0,0,1,3.5-2.82,10,10,0,0,1,1.59-.37,26.16,26.16,0,0,0,1.71,4.79,40.43,40.43,0,0,0,10.28,13l-1,4.14a4.66,4.66,0,0,0-3.23,1.38,5.86,5.86,0,0,0-1.26,1.78,5.23,5.23,0,0,0-.49,2.23,5.66,5.66,0,0,0,2.94,4.77,4.85,4.85,0,0,0,.88,4.38,5.4,5.4,0,0,0,2,1.52,6.08,6.08,0,0,0,2.43.59,6,6,0,0,0,5-2.43,6.61,6.61,0,0,0,5-1.12,5.42,5.42,0,0,0,1.8-2.47,6.29,6.29,0,0,0,.31-3,6.6,6.6,0,0,0-2.29-4.19l4.47-12.18.26-.7-.55-.51L317,408.2a22.67,22.67,0,0,0,3.05-.75,15.57,15.57,0,0,0,8.68-6.29A15.84,15.84,0,0,0,331,391a24.5,24.5,0,0,0-1.05-5.1l-1.13-7.19a9.05,9.05,0,0,0,3.38-1.12,8.09,8.09,0,0,0,3.26-3.53,10.27,10.27,0,0,0,1-4.73,13,13,0,0,0-1.48-5.62c3.66-8.47,4-14.29,2.38-18.4-1.7-4.3-5.43-6.66-9.71-8.18l-.1,0a15,15,0,0,0-7.47-.43,12.41,12.41,0,0,0-6.42,4.26l1.71,1.5a10.3,10.3,0,0,1,5.25-3.56,13,13,0,0,1,6.3.42c3.71,1.32,6.93,3.31,8.32,6.85s1,9.05-2.57,17.16l-.23.53.29.5a10.69,10.69,0,0,1,1.46,5.05,8,8,0,0,1-.75,3.68,5.89,5.89,0,0,1-2.36,2.56,7.41,7.41,0,0,1-3.57.92l-1.3,0,.2,1.28,1.33,8.48,0,.17a22,22,0,0,1,1,4.7,13.52,13.52,0,0,1-1.87,8.69,13.27,13.27,0,0,1-7.45,5.36,23.64,23.64,0,0,1-5,1l-2.51.22,1.83,1.73,9,8.49L318.2,429l-.32.88.8.48a4.28,4.28,0,0,1,2,3.1,3.92,3.92,0,0,1-.19,1.9,3.15,3.15,0,0,1-1,1.44,4.78,4.78,0,0,1-3.94.56l-.8-.17-.42.71a3.82,3.82,0,0,1-5,1.61,3.26,3.26,0,0,1-1.14-.89,2.85,2.85,0,0,1-.23-3l.42-1-.95-.49c-1.87-.95-2.57-2.16-2.57-3.25a3.1,3.1,0,0,1,.28-1.28,3.66,3.66,0,0,1,.77-1.08,2,2,0,0,1,2.06-.65l1.24.53.31-1.31,1.41-5.87.16-.68-.53-.45q-7.2-6.21-10.22-12.69a22.25,22.25,0,0,1-1.94-13.09l-.07-.61a88.34,88.34,0,0,0-6.91-13.74,37.08,37.08,0,0,0-8.39-9.6l-.84-.65-.7.79-10.64,12-.52.6.37.69a5.51,5.51,0,0,1,.35,3.79,4.14,4.14,0,0,1-.87,1.74,2.25,2.25,0,0,1-1.35.76,4.13,4.13,0,0,1-2.74-.82l-.56-.35-.59.32a6.66,6.66,0,0,1-4.09,1.06,2.35,2.35,0,0,1-1.36-.68,2.54,2.54,0,0,1-.64-1.3,3.42,3.42,0,0,1,.39-2.35l.37-.65-.45-.6a6.44,6.44,0,0,1-1.52-3.73,2.69,2.69,0,0,1,.47-1.61,2.5,2.5,0,0,1,1.21-.9,3.72,3.72,0,0,1,2.5.06l.89.31.47-.82,11-19.29.15-.55c0-.13,0-.28,0-.43a16.92,16.92,0,0,1,.19-2.24,17.28,17.28,0,0,1,.43-2.12,16.83,16.83,0,0,1,5.74-8.7l-1.44-1.76a19.14,19.14,0,0,0-6.49,9.87,21.4,21.4,0,0,0-.5,2.38A105.71,105.71,0,0,1,266,339.26a115.16,115.16,0,0,0-5.1-13.43h0l-.3-.67h-.74a4.43,4.43,0,0,1-2.85-.93,4.17,4.17,0,0,1-1.31-1.79,3.71,3.71,0,0,1-.15-2.05,3.12,3.12,0,0,1,1.17-1.73l.74-.56-.4-.84a4,4,0,0,1,0-4.07,3.46,3.46,0,0,1,2.68-1.53,3.7,3.7,0,0,1,3.34,1.85l.76,1.16,1-1a2.83,2.83,0,0,1,3.06-.73h0a3.3,3.3,0,0,1,1.19.77,3.68,3.68,0,0,1,.8,1.24c.46,1.22.23,2.83-1.23,4.43l-.57.63.45.74,7.6,12.34,1.94-1.19-7.18-11.65a6.27,6.27,0,0,0,1.12-6.09,5.85,5.85,0,0,0-1.33-2.06,5.55,5.55,0,0,0-2-1.29h0a5,5,0,0,0-4.47.46,5.75,5.75,0,0,0-7.12-1.16,5.87,5.87,0,0,0-1.93,1.78,6,6,0,0,0-.54,5.54,5.17,5.17,0,0,0-1.32,2.42,5.73,5.73,0,0,0,.22,3.35,6.36,6.36,0,0,0,2,2.79,6.55,6.55,0,0,0,3.54,1.39A122.72,122.72,0,0,1,263.84,340c2.14,6.42,4.34,13,7.76,18.6l-10,17.49a5.76,5.76,0,0,0-3.08.19,4.68,4.68,0,0,0-2.31,1.74,5,5,0,0,0-.88,2.92,8.24,8.24,0,0,0,1.57,4.53,5.8,5.8,0,0,0-.33,3.23,4.9,4.9,0,0,0,1.24,2.45,4.62,4.62,0,0,0,2.64,1.35,8.37,8.37,0,0,0,5-1,5.94,5.94,0,0,0,3.71.81,4.43,4.43,0,0,0,2.72-1.5,6.33,6.33,0,0,0,1.38-2.69,8.08,8.08,0,0,0-.22-4.67l9.43-10.6a36.57,36.57,0,0,1,7,8.35C290,382,290.55,382.87,291.07,383.77Zm29.05-32.4,2.3,12.08,2.21.08c.37-1.39.86-2.94,1.35-4.5,1-3.18,2-6.36,2.11-8.6v-.18a4,4,0,0,0-2.72-3.5,4.08,4.08,0,0,0-1.7-.2,4,4,0,0,0-1.64.53h0a4.19,4.19,0,0,0-1.92,4.16Zm3.66,7.08L322.37,351a2,2,0,0,1,.81-2h0a1.8,1.8,0,0,1,.69-.22,1.91,1.91,0,0,1,.75.09,1.81,1.81,0,0,1,1.18,1.54,40.55,40.55,0,0,1-2,7.92Zm-16.16-9.19h0c-.26.79-.53,1.56-.82,2.31s-.64,1.58-1,2.38a71.76,71.76,0,0,1-8.1,13.54l-.4.54.29.62,11.27,24.15v0a7.93,7.93,0,0,0,4.49,4.15,5.38,5.38,0,0,0,2.91.16,4.68,4.68,0,0,0,2.51-1.49,7.07,7.07,0,0,0,1.49-5.24l0-.12v-.05c-1-5.77-2.45-11.26-3.87-16.54-2.25-8.32-4.35-16.12-4-23.42l-2.27-.1c-.37,7.66,1.78,15.62,4.07,24.1,1.41,5.24,2.88,10.69,3.82,16.32a4.81,4.81,0,0,1-.92,3.54,2.48,2.48,0,0,1-1.32.79,3.19,3.19,0,0,1-1.69-.11,5.67,5.67,0,0,1-3.16-3h0l-11-23.51a73.61,73.61,0,0,0,7.95-13.42c.38-.85.72-1.68,1-2.49s.62-1.66.87-2.42h0Z" transform="translate(-8.48 -276.49)"/><path class="cls-3" d="M123.67,436.18a91.69,91.69,0,0,1-17.09-8.87A43.3,43.3,0,0,1,94,435.8a82.23,82.23,0,0,1-13.66,4.75c46.28,29.21,110.4,37.14,167.57,24.05,11.37-2.6,21.6-6.43,32.21-10.69,9.73-3.91,13.95-7.71,22.75-13-7.73-1.91-8.82-5.12-15.23-8.82h0c-1.42-.82-2.81-1.69-4.19-2.61q-1.64-1.09-3.21-2.28c-36.76,22.73-92.34,25.52-133.94,16a151.54,151.54,0,0,1-22.65-7" transform="translate(-8.48 -276.49)"/><path class="cls-4" d="M107.21,424.33h0a87.72,87.72,0,0,0,17.5,9.23,147.46,147.46,0,0,0,22.23,6.85c41.33,9.48,96.57,6.66,132.65-16.13l.82-.52.78.59h0q1.86,1.45,3.83,2.76t4,2.51h0a80,80,0,0,0,23.77,8.87l.46,2.56-.59.37h0a195.94,195.94,0,0,1-30.65,15.47,224,224,0,0,1-33.49,10.42c-59,13.5-125.36,4.86-172.46-26.2l-2.72-1.79,3.16-.75a86.07,86.07,0,0,0,16.3-5.35,39.51,39.51,0,0,0,12.53-8.73l.83-.9Z" transform="translate(-8.48 -276.49)"/><path class="cls-5" d="M89.15,297.22a10.12,10.12,0,0,0-4.65,2.19c-2.85-1.63-6.35-1.18-7.14,2.11-.49,2.38,1.4,4.66,5,5.28l.12,1.24a13.73,13.73,0,0,0-5.65,7c-.68,1.55,0,3.5,1.75,4.91-.2,2.13.3,5.29,3.67,5.81a3.88,3.88,0,0,0,3.65,3.44c1.73-1.36,1-9.4,2.22-11.06l14.61,4.33c2.26,1,2.64,2.07.41,2.34l-8.1-.7c3.22,1.35,8.45,1.1,11.7,2.84,1.34.5,4.22,4,1.79,4-4.22-1-9.11-1.34-12.42-2.73,3.66,2.81,10.63,2.48,13.38,5.49,1.32,1,2.68,4.87.28,3.75-2.81-2.5-9.28-2.61-13.78-5.35,3.49,3.95,11.25,4.3,13.68,7.6.83.95,1.53,2.19-.4,2.44-1.88.06-4.59,2.67-6.88,4-5.35,2.27-7.77-5.74-9.49-8.92-.06,2.35,2,6.11,2.57,9.22.87,3.62-2.24,3.91-5.27,3.45,1.49-5.36-.67-9-1.24-13.11-1,4.56,2.82,13-1.89,13.8-1.29.11-2-.4-1.41-1.87.88-3.49-.41-7.8-.21-11.69-1.31.94-.36,7.62-1.09,11.31-.32,2-4.27,2.46-3.74.33,1.87-4,.26-7.86.74-12-1.31,4-.64,11-2.83,12.42-2.43,1.36-3.18.25-2.69-.73,2.12-5.39,1.18-9.37,1.78-14-1.87,5.18-.38,12.07-5.59,15.53-3.1,1.95-5.59,1.21-3.34-.46a13.36,13.36,0,0,0,5.48-11.36l1.41-10.32-2,7.38c-.7,2.38-1.82,0-1.93-1.11-.42-2.85.57-6.64,1.83-10.87A23.15,23.15,0,0,0,70.39,330c-1.41,1.34-3.09-1.42-1.69-3.9a45.17,45.17,0,0,1,3.83-7.41,39.31,39.31,0,0,0-4.79,6.23c-1.81-.16-.58-2.73-.16-3.63a26.9,26.9,0,0,1,4.61-6.19l-5,4.28c-1.53-.34-.58-1.95-.12-2.82a20.75,20.75,0,0,1,5.11-5.72,18.91,18.91,0,0,0-5.25,3.76c-1,.46-.94-.8-.64-1.83.82-2.82,3.62-4.74,5.84-6.4L68.65,308c-1-.17-.62-.87-.26-1.45a17.62,17.62,0,0,1,6.85-6.74,29.17,29.17,0,0,1,9.43-3.29c2.14-.38,4.21-.34,4.48.7m2.95-.46,3.71.71,1.83,2.14c2.76.72,5.45,1.29,8.47,1.79.8.1,1.29.56,1.11,1.79a17.65,17.65,0,0,1-1,5.35c-.7,1.22-2,1.54-3.69,1.25-4.24-1.25-7.77-1.85-7.89.6l10.2.21a7.84,7.84,0,0,0,5-1.57c-.4,1.85-1.56,3.09-4.57,2.87L94,311.3c.1,1.12.77,2.08,2.57,2.42a33.69,33.69,0,0,0,6.28-.78c1-.24,1.63.06,1.69,1.17a4.45,4.45,0,0,1-3.13,4.28l-3.07.6c3.82,1.12,7.14,2.61,8.65,5.4a8.35,8.35,0,0,1,4.6,8.4c2.06,2.13,2.59,4.4,1.57,6.8a2.9,2.9,0,0,1,.2,3.68c-6,.26-12.85,8-15.58,5-1.93,3.44-4.78,4.1-8.26,2.87-2.82,1.65-4.71,1.46-5.7-.57q-2.52,2.25-5.64.24a2.18,2.18,0,0,1-3.83-1.23c-2.79,3.49-6,3.48-9.38,1.09,6.12-3.91,7.46-8.2,7.44-11.45a7.09,7.09,0,0,1-2.39-7c-2.63-.18-3.8-1.71-3.5-4.61-2.13-2.06-1.52-3.91-.82-5.76-1.22-.59-1.63-2.79-.87-4.11-1.22-2.15-1.19-4.61.65-7.51.06-5.46,6.68-11.69,12.83-13.64C85.17,294.35,90.38,293.77,92.1,296.76Zm-6.59,19.56c-4.06,5.25-1.43,13-.15,10.65.62-4.39.66-7.82,1.5-9.52A7.88,7.88,0,0,1,85.51,316.32Zm-1.82-3.14c-4.89,4.48-3.45,12.11-1.79,10a13.86,13.86,0,0,1,3-7.62A8.81,8.81,0,0,1,83.69,313.18Zm-.82-4.32c-4.91,3.31-5.39,10.19-3.26,8.51a15.58,15.58,0,0,1,3.8-5.12A9.09,9.09,0,0,1,82.87,308.86Zm20.72-1.93c1.49.23.79,1.36-1,1.24-2.58-.23-5.3-1.48-7.74-.7a4.24,4.24,0,0,0-1,6.74c1.34.89,3.85,1,7,.72,1.46-.39,1.89.5,1.08,1.18a10.16,10.16,0,0,1-7.12.33,4.13,4.13,0,0,1-3.08-2.87c-1-2.82-.36-5.91,2.7-6.89C96.79,305.94,100.09,306.32,103.59,306.93Zm-.74-2.22c-.26-.89-.18-1.57.4-1.94l1.28,0c1,.56.86,1.43.21,2.46A2,2,0,0,1,102.85,304.71Zm-14.4-5.91a10.24,10.24,0,0,1,5.81.37c1.66.41.69,3.05-1.25,3.16s-3.69-.78-5.42-1.56C85.31,299.93,86.58,299,88.45,298.8Zm2.15,5c1.46.83,1.81.18,1-.39l-8.29-3.16c-1.76-.47-4.68.73-3.68,3.6.79,1.82,3.37,2.29,6.14,1.77-2.73,3.32-2.09,10,5.16,11.34,1.49-1.14-.1-1.85-.15-2.78-1.3-4.09.72-8,3.88-8.4l5.07-.27c1.09.07,1.86-.27,2.07-1.26.44-1.45.11-1.91-.57-1.93l-2.64-.61c-2-.32-2.71,1.42-4.22,2-.61,1.23-1.35,2.14-2.54,1.82C90.67,305.37,90.27,304.37,90.6,303.76Z" transform="translate(-8.48 -276.49)"/><path class="cls-1" d="M150.27,282.42H149v7.5l-2-1.08v-1.42l-.45.05-.45,0a3.27,3.27,0,0,1-2.18-.9,5.5,5.5,0,0,1-1.57-2.4,2.57,2.57,0,0,0,1.16-.51,1,1,0,0,0,.45-.77.85.85,0,0,0,0-.25.84.84,0,0,0-.14-.24h-1.69V281h8.19Zm-3.28,2.4v-2.4H145.2a2.07,2.07,0,0,1,.53,1.43,1.68,1.68,0,0,1-.56,1.23,2.58,2.58,0,0,1-1.4.69,2.35,2.35,0,0,0,.9.41,2.47,2.47,0,0,0,1.27-.36A3,3,0,0,0,147,284.82Zm7.6-2.44h-1.32v7.51l-2-1.08v-6.43h-1.15V281H152l-1.56-2.15a1.31,1.31,0,0,0-1.06-.47,2.75,2.75,0,0,0-.7.07,2.8,2.8,0,0,0-.63.22l-1.18-2.14a14,14,0,0,1,2.28.54,2.22,2.22,0,0,1,1.13.71l2.25,3.22h2.07Zm8.65,0h-1.37v7.51l-2-1.08v-6.43h-1.72a13,13,0,0,1,.22,1.39,10.7,10.7,0,0,1,.07,1.12,5.15,5.15,0,0,1-.31,1.9c-.2.51-.46.77-.77.77a2.26,2.26,0,0,1-1.76-.83,3,3,0,0,1-.75-2,.67.67,0,0,1,.17-.46.51.51,0,0,1,.39-.18,2.6,2.6,0,0,1,.71.09l.24-1.78h-1.92V281h8.76Zm4.18,1.69-1.54,1.7-1.5-1.7,1.5-1.69Zm0,4.1-1.54,1.72-1.5-1.72,1.5-1.69Zm14.72-5.79h-3.89V284a2.83,2.83,0,0,1,2.29,1.19,4.61,4.61,0,0,1,.93,2.91,5.1,5.1,0,0,1,0,.6c0,.25-.08.53-.14.83l-2.14-1.25a5.78,5.78,0,0,0,1-2.57c0-.16-.08-.24-.25-.24a2.39,2.39,0,0,0-1.61,1.06v3.4l-2-1.08V287.6a4.17,4.17,0,0,1-2.62-.83,2.49,2.49,0,0,1-1.08-2,1.29,1.29,0,0,1,.55-1.05,2.18,2.18,0,0,1,1.36-.42,2.32,2.32,0,0,1,.9.17l.89.89v-2h-4.08V281h9.93Zm-5.85,2.89v-.52a3.73,3.73,0,0,0-1.79.41,1.21,1.21,0,0,0-.75,1,.36.36,0,0,0,.39.25,2,2,0,0,0,.91-.3A9.42,9.42,0,0,0,176.29,285.27Zm14.26-2.89h-1.32v7.51l-2-1.08v-2.14h-1.62v.89a1,1,0,0,1-.14.57.44.44,0,0,1-.39.22,3.88,3.88,0,0,1-2.74-2.75.51.51,0,0,1,.16-.4.63.63,0,0,1,.44-.15h.72v-2.67H182V281h8.51Zm-3.29,2.67v-2.67h-1.62v2.67Zm3.43-7-.43.44a.61.61,0,0,0-.35-.31,1.93,1.93,0,0,0-.72-.13,1,1,0,0,0-.76.33,1,1,0,0,0-.31.76,3,3,0,0,0,.78,1.79h-.53a4,4,0,0,1-1.61-3,1.41,1.41,0,0,1,.4-1,1.28,1.28,0,0,1,1-.41,2.66,2.66,0,0,1,1.45.42A3.5,3.5,0,0,1,190.69,278.08Zm9,4.27h-1.35v7.54l-1.94-1.08v-2.25a4.22,4.22,0,0,1-1.79-1,2.32,2.32,0,0,1-.48,1.12,2,2,0,0,1-.94.68l2.15,2.49-.71.25-2.88-3.82a4.4,4.4,0,0,1-.89-1.83A.8.8,0,0,1,191,284a.5.5,0,0,1,.38-.23,1.16,1.16,0,0,1,1.07.72,2,2,0,0,0,.36-1.19,2.62,2.62,0,0,0-.18-.95h-2.14l0-1.39h9.22Zm-3.29,2v-2h-2.25a6.86,6.86,0,0,1,.48,2.51H195a2.12,2.12,0,0,0,.75-.14A2.06,2.06,0,0,0,196.42,284.31ZM200,291.5a1.9,1.9,0,0,1-.78,1.51,2.91,2.91,0,0,1-1.89.63,5.67,5.67,0,0,1-2.76-.79A9.34,9.34,0,0,1,192,290.6l.37-.29a5.93,5.93,0,0,0,1.85,1.48,4.76,4.76,0,0,0,2.17.53,2.86,2.86,0,0,0,1.78-.55,1.63,1.63,0,0,0,.73-1.35c0-.08-.1-.11-.29-.11a4.8,4.8,0,0,0-1.5,1l-1.7-1.25a3.13,3.13,0,0,1,2-.9,2.74,2.74,0,0,1,1.89.68A2.1,2.1,0,0,1,200,291.5Zm13.45-9.12h-3.9V284a2.83,2.83,0,0,1,2.29,1.19,4.61,4.61,0,0,1,.93,2.91,3.77,3.77,0,0,1-.05.6c0,.25-.07.53-.13.83l-2.14-1.25a5.83,5.83,0,0,0,1-2.57c0-.16-.09-.24-.26-.24a2.39,2.39,0,0,0-1.61,1.06v3.4l-2-1.08V287.6a4.17,4.17,0,0,1-2.63-.83,2.48,2.48,0,0,1-1.07-2,1.28,1.28,0,0,1,.54-1.05,2.18,2.18,0,0,1,1.36-.42,2.21,2.21,0,0,1,.89.17l.91.89v-2h-4.09V281h9.94Zm-5.85,2.89v-.52a3.67,3.67,0,0,0-1.79.41c-.51.29-.76.62-.76,1a.36.36,0,0,0,.39.25,2.07,2.07,0,0,0,.92-.3A11,11,0,0,0,207.63,285.27Zm10.17-2.89h-1.32v7.51l-2-1.08v-6.43h-1.15V281h1.39l-1.47-1.08a2,2,0,0,0-.71-.35,5.05,5.05,0,0,0-1,.71h-.89L209,278.45h.72a13.72,13.72,0,0,1,1.93.1,2.37,2.37,0,0,1,1.11.43l2.65,2h.26l-2-2.69a.38.38,0,0,0-.32-.19.87.87,0,0,0-.51.19l-1.33-.27-1.34-1.51h1.72a2.43,2.43,0,0,1,.92.17,1.51,1.51,0,0,1,.69.54l2.71,3.76h1.61Zm9.53,0H226v7.51l-2-1.08v-6.43h-2.33V284a2.31,2.31,0,0,1,.85.85,2,2,0,0,1,.32,1.11,2.16,2.16,0,0,1-.51,1.37,3.19,3.19,0,0,1-1.37.95l1.35,2.51a1.4,1.4,0,0,1-.47.08.71.71,0,0,1-.41-.16,1.24,1.24,0,0,1-.31-.45l-.6-1.9a4.29,4.29,0,0,1-1.62-.65,1.23,1.23,0,0,1-.63-1,.9.9,0,0,1,.24-.63.77.77,0,0,1,.58-.27.64.64,0,0,1,.34.15c.14.09.35.26.63.49a2.21,2.21,0,0,0,1-.73,1.75,1.75,0,0,0,.39-1.11c0-.18-.13-.26-.37-.26a7.13,7.13,0,0,0-2,.71l-1.16-1.54.76-.14a6.21,6.21,0,0,1,.92-.13v-.9h-2V281h9.61Zm10.36,0h-1.61v7.54l-1.92-1.08v-3.39l-.13-.05c-.16,0-.35.21-.57.62a5.29,5.29,0,0,0-.47,1.39l-2-.53a8.44,8.44,0,0,1,.26-.89,3.21,3.21,0,0,1,.35-.64.69.69,0,0,0-.39-.19,1.6,1.6,0,0,0-1.09.39,1.24,1.24,0,0,0-.45,1,2.74,2.74,0,0,0,.51,1.47,6.69,6.69,0,0,0,1.42,1.55l-.35.35a12.5,12.5,0,0,1-2.61-2.35,3.55,3.55,0,0,1-.94-2.12,1.58,1.58,0,0,1,.6-1.27,2.18,2.18,0,0,1,1.48-.52,2.1,2.1,0,0,1,1.1.33,3.78,3.78,0,0,1,1,.94,2.46,2.46,0,0,1,2.22-1.27v-1.24h-6.9V281h10.43Zm8.17,0h-1.33v7.51l-2-1.08v-2.14H241v.89a1.09,1.09,0,0,1-.14.57.44.44,0,0,1-.39.22,3.92,3.92,0,0,1-2.75-2.75.51.51,0,0,1,.17-.4.61.61,0,0,1,.43-.15H239v-2.67h-1.65V281h8.52Zm-3.3,2.67v-2.67H241v2.67Zm5.58,8.59-.44.36-3.49-2.8-1.32.72-1.43-1.78,2-.25Z" transform="translate(-8.48 -276.49)"/><path class="cls-5" d="M298.33,297.22a10.1,10.1,0,0,1,4.66,2.19c2.84-1.63,6.34-1.18,7.13,2.11.5,2.38-1.4,4.66-5,5.28L305,308a13.78,13.78,0,0,1,5.65,7c.68,1.55,0,3.5-1.75,4.91.19,2.13-.3,5.29-3.67,5.81a3.89,3.89,0,0,1-3.65,3.44c-1.73-1.36-1-9.4-2.22-11.06l-14.62,4.33c-2.26,1-2.63,2.07-.4,2.34l8.1-.7c-3.22,1.35-8.46,1.1-11.7,2.84-1.34.5-4.22,4-1.8,4,4.23-1,9.12-1.34,12.43-2.73-3.67,2.81-10.63,2.48-13.39,5.49-1.31,1-2.67,4.87-.27,3.75,2.8-2.5,9.28-2.61,13.78-5.35-3.49,3.95-11.25,4.3-13.68,7.6-.84.95-1.54,2.19.4,2.44,1.88.06,4.58,2.67,6.88,4,5.34,2.27,7.77-5.74,9.48-8.92.06,2.35-2,6.11-2.56,9.22-.88,3.62,2.24,3.91,5.26,3.45-1.48-5.36.68-9,1.24-13.11,1,4.56-2.82,13,1.89,13.8,1.3.11,2-.4,1.41-1.87-.88-3.49.42-7.8.22-11.69,1.31.94.36,7.62,1.09,11.31.31,2,4.26,2.46,3.73.33-1.86-4-.25-7.86-.74-12,1.31,4,.65,11,2.84,12.42,2.42,1.36,3.18.25,2.68-.73-2.11-5.39-1.18-9.37-1.77-14,1.86,5.18.37,12.07,5.59,15.53,3.1,1.95,5.59,1.21,3.34-.46a13.34,13.34,0,0,1-5.49-11.36l-1.4-10.32,1.95,7.38c.69,2.38,1.81,0,1.92-1.11.43-2.85-.56-6.64-1.82-10.87A23.41,23.41,0,0,1,317.1,330c1.41,1.34,3.09-1.42,1.69-3.9A44.45,44.45,0,0,0,315,318.7a39.37,39.37,0,0,1,4.8,6.23c1.81-.16.58-2.73.15-3.63a26.86,26.86,0,0,0-4.6-6.19l5.05,4.28c1.52-.34.58-1.95.12-2.82a21.08,21.08,0,0,0-5.11-5.72,19.05,19.05,0,0,1,5.25,3.76c1,.46.93-.8.63-1.83-.82-2.82-3.61-4.74-5.84-6.4l3.44,1.62c1-.17.61-.87.26-1.45a17.76,17.76,0,0,0-6.85-6.74,29.26,29.26,0,0,0-9.43-3.29c-2.14-.38-4.21-.34-4.49.7m-2.94-.46-3.72.71-1.83,2.14c-2.76.72-5.45,1.29-8.46,1.79-.8.1-1.29.56-1.11,1.79a17.35,17.35,0,0,0,1,5.35c.69,1.22,2,1.54,3.69,1.25,4.23-1.25,7.77-1.85,7.88.6l-10.19.21a7.85,7.85,0,0,1-5.05-1.57c.41,1.85,1.56,3.09,4.57,2.87l11.23-.6c-.09,1.12-.76,2.08-2.56,2.42a33.59,33.59,0,0,1-6.28-.78c-1-.24-1.64.06-1.7,1.17a4.46,4.46,0,0,0,3.14,4.28l3.06.6c-3.82,1.12-7.13,2.61-8.65,5.4a8.35,8.35,0,0,0-4.59,8.4q-3.11,3.19-1.57,6.8a2.88,2.88,0,0,0-.21,3.68c6,.26,12.86,8,15.59,5,1.93,3.44,4.78,4.1,8.26,2.87q4.21,2.48,5.69-.57,2.53,2.25,5.65.24a2.17,2.17,0,0,0,3.82-1.23c2.79,3.49,6,3.48,9.39,1.09-6.13-3.91-7.46-8.2-7.45-11.45a7.07,7.07,0,0,0,2.4-7c2.63-.18,3.79-1.71,3.5-4.61,2.13-2.06,1.51-3.91.81-5.76,1.23-.59,1.64-2.79.88-4.11,1.21-2.15,1.19-4.61-.65-7.51-.06-5.46-6.68-11.69-12.84-13.64C302.32,294.35,297.1,293.77,295.39,296.76ZM302,316.32c4,5.25,1.42,13,.15,10.65-.63-4.39-.66-7.82-1.5-9.52A7.88,7.88,0,0,0,302,316.32Zm1.81-3.14c4.9,4.48,3.46,12.11,1.79,10a13.87,13.87,0,0,0-3-7.62A8.5,8.5,0,0,0,303.79,313.18Zm.82-4.32c4.91,3.31,5.4,10.19,3.27,8.51a15.72,15.72,0,0,0-3.8-5.12A9.08,9.08,0,0,0,304.61,308.86Zm-20.71-1.93c-1.49.23-.79,1.36,1,1.24,2.58-.23,5.3-1.48,7.74-.7a4.24,4.24,0,0,1,1,6.74c-1.34.89-3.85,1-7,.72-1.47-.39-1.9.5-1.08,1.18a10.16,10.16,0,0,0,7.12.33,4.13,4.13,0,0,0,3.07-2.87c1-2.82.36-5.91-2.7-6.89C290.69,305.94,287.39,306.32,283.9,306.93Zm.74-2.22c.26-.89.18-1.57-.41-1.94l-1.28,0c-1,.56-.85,1.43-.2,2.46A2,2,0,0,0,284.64,304.71ZM299,298.8a10.27,10.27,0,0,0-5.82.37c-1.65.41-.68,3.05,1.26,3.16s3.69-.78,5.42-1.56C302.17,299.93,300.9,299,299,298.8Zm-2.16,5c-1.46.83-1.8.18-1-.39l8.28-3.16c1.77-.47,4.69.73,3.68,3.6-.79,1.82-3.36,2.29-6.14,1.77,2.73,3.32,2.09,10-5.15,11.34-1.49-1.14.09-1.85.14-2.78,1.31-4.09-.72-8-3.88-8.4l-5.06-.27c-1.09.07-1.86-.27-2.08-1.26-.44-1.45-.11-1.91.58-1.93l2.63-.61c2-.32,2.71,1.42,4.22,2,.62,1.23,1.35,2.14,2.54,1.82C296.81,305.37,297.22,304.37,296.88,303.76Z" transform="translate(-8.48 -276.49)"/><path class="cls-6" d="M193.62,359.61H247V308.85c-20.2,9.07-39.56,4.57-53.34-4.11Z" transform="translate(-8.48 -276.49)"/><path class="cls-7" d="M248,353.93h-.52l-.41.05-.17-.08-.07-.14-.14-.19-.27-.27-.38-.09-.31,0h-.24l-.7-.1-.69-.24-3.22-.19-.19.1-.19,0-.19-.2-.12-.09-.22.24-.57.31-.48.07-.27-.22-.31-.09-.29,0-.31,0-.26-.16-.15-.15-2.32-.26-.43.1-.75.19-.55-.1-.6-.55-.86-.29-.89.39-.62.14-.58-.55-.79-.39-1.13.48-.67,0-.24-.67-.48-.07-.62.36h-.58l-.21-.15-3.17.07-.45.15-.39,0-.38-.17h-.48l-3.52.39-.44,0-.5.24-.45.6-.44.32-.45-.24-.7.33-.48.67-.36.15-.62-.05h-.46l-.33.26-.31.1-2.14-.22-1,.12-.44.05-.36.33-.28.12-.27-.14h-.28l-.32.31-.43.05-.43-.24-2,.48-.2.1-.5.24-.72.31-.91.33-2.16.63-2.11.93-1.65.91-1.66.36-1.68.87-1.91,1.65c18.51,7.12,38.12,7.26,58.38,3.25" transform="translate(-8.48 -276.49)"/><polygon class="cls-7" points="216.52 74.63 216.71 74.49 216.9 74.37 217.12 73.7 216.76 73 216.54 72.81 216.62 72.93 216.54 72.81 216.54 72.76 216.74 72.64 216.95 72.55 215.87 70.7 214.55 68.4 212.37 69.21 213.52 71.28 214.7 73.31 214.87 73.17 215.13 73.17 215.03 73.46 214.75 73.77 214.41 73.98 213.88 74.13 213.52 74.42 213.35 74.7 216.52 74.63"/><polygon class="cls-7" points="211.65 74.63 211.56 74.42 211.15 73.89 211.2 73.75 211.27 73.63 211.46 73.63 211.6 73.58 211.41 71.49 211.2 69.41 208.82 69.55 208.97 71.64 209.11 73.72 209.35 73.7 209.59 73.65 209.54 73.82 209.4 73.94 209.01 74.11 208.34 74.44 208.08 74.8 208.13 75.02 211.65 74.63"/><path class="cls-7" d="M219.48,316.93a3.17,3.17,0,0,0-3.5-.29l-.17.24-.19.22,0,.24.14.24,0,.24-.05.33.09.31-.14.27-.21.26.09.34.12,0,.12.05,0,.17,0,.17.15.07.09.07-.09.05,0,.26,0,.08,0,.12,0,.16.07.17.8.15.12.09.09.19v.24l-.12.22-.21.12-.34.12-.53.17-.36.38-.43.79-.24.67-.12.58-.41,2-.52,2-.6,1.28-.67,1.12-.63,1.46-.48,1.37-.09.31-.19.1-.22.07-.14.17-.05.17-.07.24-.05.19-.07.19.12.1h.12l1-.12.22-.15.17-.21-.08-.46.12-.43.17-.24.12.43.17.65.34.19.33-.1.62,0,.7.36.46.1.16-.05,0-.62,0-1.13.6-1.35.53-1.27-.38,2.16-.31,2.11-.1,1.85-.14,2.3-.29,3.65-.1,2.44-.05.29.05.45.51,0,.76-.36h.36l.19.33.17.22.48-.24,2.38-.15.28-.12.6,0,.29,0,2.18-.81.19-.15.22-.16,0-.51-.26-.84-.24-.74v-.86l-.22-1.71-.16-1.67-.1-2.21-.29-2.25-.33-2,0-1.29v-1.37l0-1.2.45,1.06.12,1,.15,1.36.5,1.22.62,1.73.48,1.34.6-.07.51-.14.14-.63.5-.52.68,0L227,334l.19-.6.41-.27.6-.07.41-.07.31.45.19.46.14.31.15.22.09.21.24,0,1.49-.14-.19-.39-.15-.45-.21-.29-.34-.17-.5-.38-.6-.51-1.42-1.82-.83-1.17-.51-.72-.38-.6-.58-.77-.62-.74-.43-.46-.19-.26-.22-.63-.7-.84-.5-.4-.55-.44-.41-.62-.31-.62-1.15-.86-.53-.15-.65-.17,0-.33.09-.24.34-.48c.36-.77.65-2.48-.15-3.07" transform="translate(-8.48 -276.49)"/><polygon class="cls-7" points="199.04 66.98 195.2 67.63 195.13 67.82 194.96 68.25 194.82 68.83 194.72 69.48 194.77 70.17 194.84 71.01 194.89 71.71 194.92 71.99 194.84 73.58 194.77 75.16 194.63 78.3 196.64 77.82 196.64 77.44 196.64 77.22 196.79 77.22 196.91 77.22 196.86 77.03 196.79 76.69 196.83 75.64 196.91 74.37 197.05 73.05 197.29 71.71 197.5 71.2 197.63 71.11 198.13 71.68 198.7 72.62 198.97 73.46 199.38 74.03 199.83 75.59 200.07 77.08 200.22 77.03 200.36 76.98 200.46 77.22 202.59 77.44 202.4 77.29 202.28 77.1 202.16 76.91 202.32 76.86 202.47 76.81 202.16 75.86 201.8 74.87 201.2 73.27 200.36 71.16 200.09 70 200.02 69.17 199.81 68.35 199.45 67.46 199.18 67.08 199.04 66.98"/><polygon class="cls-7" points="202.04 58.81 202.09 59.19 202.16 59.38 202.28 59.57 202.18 60.41 202.06 61.16 201.99 61.47 201.77 62 201.37 62.81 201.2 62.76 201.13 62.67 201.2 62.57 201.25 62.45 201.08 62.23 200.86 62.07 200.72 61.92 200.46 61.8 200.14 61.66 199.81 61.59 199.52 61.56 199.35 61.52 199.14 61.42 198.92 61.28 198.73 61.16 198.61 61.09 198.49 61.04 198.32 60.96 198.13 60.75 198.08 60.41 198.3 60.37 198.47 60.32 198.66 60.17 198.78 59.98 198.82 59.74 198.94 59.36 199.06 58.95 199.09 58.57 199.09 58.37 199.06 58.18 199.02 58.04 198.94 57.87 198.87 57.68 198.73 57.53 198.58 57.42 198.42 57.3 198.03 57.15 197.75 57.13 197.55 57.15 197.36 57.18 197.17 57.18 196.86 57.18 196.5 57.25 196.16 57.44 195.95 57.61 195.66 57.94 195.49 58.26 195.63 58.47 195.63 58.61 195.66 58.85 195.73 59 195.59 59.19 195.44 59.41 195.63 59.55 195.71 59.79 195.71 59.91 195.71 60.05 195.73 60.17 195.8 60.29 195.9 60.37 196.09 60.37 196.26 60.37 196.35 60.51 196.31 60.68 196.19 60.87 195.95 60.94 195.56 60.96 195.23 60.99 194.92 61.06 194.58 61.06 194.05 60.96 193.38 60.77 193.33 60.87 193.26 60.96 193.14 60.92 192.85 60.87 192.54 60.8 192.25 60.72 191.8 60.63 191.01 60.6 190.24 60.58 189.88 60.56 189.59 60.58 189.21 60.46 188.82 60.32 188.51 60.29 188.18 60.41 187.89 60.44 187.6 60.41 187.22 60.41 186.88 60.44 186.79 60.53 186.88 60.6 187.07 60.65 187.27 60.65 187.43 60.68 187.65 60.72 187.89 60.77 188.11 60.89 188.25 61.04 188.32 61.28 188.54 61.47 188.87 61.47 189.21 61.32 189.5 61.16 189.78 61.09 190.1 61.11 190.48 61.2 190.86 61.35 191.44 61.54 192.25 61.85 193.26 62.21 193.16 62.45 193.09 62.67 193.41 62.74 194.05 62.93 194.7 63.19 194.92 63.55 194.87 64.32 194.8 65.59 194.72 67.25 194.96 67.44 195.2 67.63 199.04 66.98 199.26 66.86 199.47 66.77 199.45 66.05 199.3 64.87 199.26 64.18 199.62 63.36 199.85 63.6 200.09 63.79 200.19 63.6 200.24 63.41 200.41 63.51 200.74 63.79 201.2 64.22 201.85 64.18 202.47 63.29 202.69 62.74 202.95 61.16 203 60.05 202.97 59.48 202.9 59 203.04 58.69 202.04 58.81"/><polygon class="cls-7" points="235.61 76.33 235.51 75.86 235.56 75.54 235.78 75.33 235.75 74.75 235.3 74.22 234.55 73.27 232.39 70.32 232.32 69.77 232.3 68.97 232.32 68.09 232.35 67.53 232.42 66.5 232.51 65.35 232.61 64.32 232.75 63.51 232.75 63.19 232.75 62.76 232.75 62.33 232.85 61.92 232.85 61.59 232.75 61.23 232.37 60.65 232.11 60.32 231.82 59.81 231.56 59.29 231.34 58.9 231 58.52 230.72 58.23 230.33 57.97 229.95 57.75 229.59 57.58 229.28 57.49 229.06 57.27 228.99 57.1 228.99 56.96 229.13 56.77 229.37 56.74 229.64 56.79 229.85 56.86 229.95 56.94 230 57.08 230.21 57.68 230.43 57.94 230.67 58.09 231 57.94 231 57.8 231.31 57.82 231.46 57.7 231.39 57.56 231.24 57.42 231.29 57.34 231.39 57.15 231.34 56.74 231.29 56.29 231.15 55.91 230.86 55.23 230.69 55.02 230.52 54.92 230.31 54.73 230.04 54.35 229.78 53.94 229.61 53.65 229.37 53.53 229.21 53.51 229.04 53.46 228.82 53.31 228.37 53.22 227.84 53.27 227.24 53.41 226.83 53.65 226.47 53.82 226.09 53.96 225.75 54.08 225.49 54.25 225.37 54.49 225.44 54.8 225.66 54.97 225.97 54.92 226.09 55.11 226.18 55.57 226.09 55.83 225.94 56.05 225.9 56.24 226.09 56.31 226.26 56.38 226.18 56.58 226.23 56.7 226.33 56.72 226.23 56.79 226.26 57.03 226.33 57.1 226.52 57.18 227.07 57.2 227.24 57.27 227.19 57.42 226.97 57.44 226.59 57.63 226.38 57.87 226.11 58.26 225.94 58.45 225.8 58.69 225.63 58.9 225.49 59.09 225.18 59.33 224.99 59.38 224.82 59.33 224.58 59.21 224.41 59.14 224.15 59.07 223.91 58.97 223.62 58.9 223.21 58.71 222.97 58.45 222.85 58.13 222.73 58.02 221.24 58.16 221.53 58.23 221.77 58.52 222.01 58.76 222.23 58.85 222.4 58.95 222.49 59.14 223.62 59.98 225.08 60.89 226.02 60.44 226.93 59.79 227.22 59.98 227.57 60.99 227.86 61.8 227.89 62.5 227.91 63.51 227.91 64.42 227.91 65.54 228.08 66.65 228.37 66.89 228.56 66.91 228.53 67.32 228.53 67.73 228.22 69.48 227.98 71.3 227.46 73.1 226.95 74.87 227.09 74.97 227.24 75.11 227.22 75.28 226.88 75.23 226.33 75.23 226.14 75.5 226.33 75.59 226.52 75.76 228.85 76.02 229.11 74.7 229.35 73.46 229.47 72.55 229.61 71.64 229.95 70.46 230.26 69.31 230.43 69.64 230.57 70 230.57 70.48 230.81 71.01 231.72 72.33 232.63 73.65 233.19 74.61 233.59 75.45 233.07 75.5 232.59 75.83 232.39 76.14 235.61 76.33"/><path class="cls-8" d="M193.62,359.61H247V308.85c-20.2,9.07-39.56,4.57-53.34-4.11Z" transform="translate(-8.48 -276.49)"/><path class="cls-9" d="M246.78,359.6H193.62v77c28.09-10.23,49.32-33.6,53.16-59Z" transform="translate(-8.48 -276.49)"/><path class="cls-1" d="M223.5,306c9.82.2,19.71-2.94,29.68-10l1.7-1.21v83.32l0,.2c-4.45,22.6-18.37,42.31-37.22,55.13h0a91.77,91.77,0,0,1-11.52,6.68A89.18,89.18,0,0,1,193.68,445h-.06l-.71,0c-20.1-8.38-40.25-22.87-51.62-42.09a69.52,69.52,0,0,1-5.59-11.79,63.51,63.51,0,0,1-3.2-12.84V294.82l1.68,1.15c9.3,6.4,18.83,9.7,28.59,9.75s19.81-3.16,30.14-9.77l.58-.37.58.37c9.79,6.3,19.61,9.87,29.45,10.08m29.23-7.12c-9.79,6.56-19.55,9.46-29.27,9.25-10.07-.21-20.06-3.76-30-10-10.48,6.59-20.72,9.78-30.73,9.73-9.61-.05-19-3.1-28.11-9V378a61.53,61.53,0,0,0,3.08,12.37,67.55,67.55,0,0,0,5.43,11.43c11,18.68,30.63,32.81,50.23,41.05a86.92,86.92,0,0,0,11.82-4.72,89.64,89.64,0,0,0,11.25-6.51h0C234.8,419.15,248.37,400,252.73,378Z" transform="translate(-8.48 -276.49)"/><path class="cls-1" d="M245.84,310.53a56.68,56.68,0,0,1-6.13,2.25,53.27,53.27,0,0,1-7.63,1.73c-12.87,1.91-25.81-1.09-38.63-8.36a73.68,73.68,0,0,1-7.07,3.51,66.18,66.18,0,0,1-7.55,2.75,54.23,54.23,0,0,1-37.31-2.1v67.21a54.15,54.15,0,0,0,2.82,10.93,60.38,60.38,0,0,0,4.87,10.12c9.89,16.56,27.25,29.25,44.49,36.94a82.28,82.28,0,0,0,10.22-4.42,81.39,81.39,0,0,0,9.84-6c16.06-11.34,28-28.33,32.08-47.83Zm2.14,43.4V377.4l0,.22c-4.15,20.08-16.45,37.58-33,49.25A84,84,0,0,1,204.91,433,83.07,83.07,0,0,1,194,437.65h0l-.79,0c-17.71-7.83-35.63-20.87-45.84-38a64,64,0,0,1-5.05-10.48,56.6,56.6,0,0,1-2.93-11.38V307l1.52.68a52.3,52.3,0,0,0,37.34,2.66,64.3,64.3,0,0,0,7.31-2.65,77.75,77.75,0,0,0,7.3-3.66h0l.09,0,.53-.29.53.3c12.56,7.24,25.22,10.26,37.78,8.39a49.12,49.12,0,0,0,7.31-1.65,55.27,55.27,0,0,0,7.31-2.8h0l.08,0,1.51-.69v46.72" transform="translate(-8.48 -276.49)"/><path class="cls-10" d="M217.45,397.88l-.1,0h0c-.81-.23-1.64-.42-2.48-.59s-1.7-.31-2.57-.43a31.84,31.84,0,0,0-12.81.77l-.69-.76a33.09,33.09,0,0,1,13.65-.92c.89.12,1.77.27,2.65.44s1.59.35,2.35.55Zm0-1.21c-6.13-1.51-12.77-2.07-18.88-.08l-.34-.37c6-2,13.09-1.63,19.22,0Zm0-.68a40.47,40.47,0,0,0-7.38-1.27A31.13,31.13,0,0,0,198,396l-.35-.38c6-2.21,13.28-1.66,19.78,0Zm0-.62-.08,0h0c-6.28-1.72-13.82-2.17-20,0l-.36-.36c6.25-2.28,14-1.84,20.39-.08Z" transform="translate(-8.48 -276.49)"/><path class="cls-10" d="M217.91,397.88l.09,0h0c.82-.23,1.65-.42,2.48-.59s1.7-.31,2.57-.43a31.82,31.82,0,0,1,12.81.77l.7-.76a33.13,33.13,0,0,0-13.66-.92c-.88.12-1.77.27-2.65.44s-1.58.35-2.34.55Zm0-1.21c6.13-1.51,12.76-2.07,18.88-.08l.33-.37c-6-2-13.08-1.63-19.21,0Zm0-.68a40.17,40.17,0,0,1,7.38-1.27A31.16,31.16,0,0,1,237.34,396l.34-.38c-6-2.21-13.27-1.66-19.77,0Zm0-.62.08,0h0c6.28-1.72,13.81-2.17,19.94,0l.36-.36c-6.25-2.28-14-1.84-20.38-.08Z" transform="translate(-8.48 -276.49)"/><path class="cls-10" d="M215.4,372.07c.71.09,1.4.19,2,.32v21.5a45.79,45.79,0,0,0-9.88-1.2,41.41,41.41,0,0,0-10.09,1.18l3.31-21.1a50.84,50.84,0,0,1,12.21-.89c.83,0,1.64.1,2.41.19" transform="translate(-8.48 -276.49)"/><path class="cls-10" d="M220,372.07c-.71.09-1.39.19-2,.32v21.5a45.63,45.63,0,0,1,9.87-1.2,41.35,41.35,0,0,1,10.09,1.18l-3.3-21.1a50.92,50.92,0,0,0-12.22-.89c-.82,0-1.63.1-2.41.19" transform="translate(-8.48 -276.49)"/><path class="cls-1" d="M214.88,390.77c-.59-.13-1.21-.25-1.85-.35s-1.43-.21-2.15-.28a31.71,31.71,0,0,0-10.6.61l.07-.5a32.54,32.54,0,0,1,10.58-.57c.75.07,1.48.17,2.19.28s1.21.21,1.79.34Zm.16-3.48c-.59-.13-1.2-.25-1.82-.35s-1.4-.2-2.11-.27a30.76,30.76,0,0,0-10.3.59l.08-.5a31.54,31.54,0,0,1,10.28-.55q1.1.1,2.13.27c.6.1,1.19.21,1.76.33Zm.15-3.61c-.59-.14-1.2-.25-1.83-.35s-1.34-.2-2-.27a29.63,29.63,0,0,0-10,.59l.07-.5a30.45,30.45,0,0,1,10-.55c.7.07,1.39.16,2.06.27s1.19.21,1.76.33Zm.13-2.92c-.61-.14-1.56-.36-2.13-.45s-1.28-.19-1.92-.25a28.39,28.39,0,0,0-9.45.54l.08-.5a29.14,29.14,0,0,1,9.42-.5c.67.06,1.32.15,2,.25s1.44.29,2.06.44Zm.13-3c-.56-.13-1.14-.24-1.74-.34s-1.28-.18-1.92-.25a28,28,0,0,0-9.52.57l.07-.51a29,29,0,0,1,9.5-.52c.67.07,1.32.15,2,.25s1.13.2,1.67.32Zm.11-2.53c-.5-.11-1-.21-1.57-.29s-1.27-.19-1.92-.25a28.23,28.23,0,0,0-9.42.54l.07-.5a29,29,0,0,1,9.4-.5c.67.06,1.33.15,2,.25s1,.18,1.5.28Z" transform="translate(-8.48 -276.49)"/><path class="cls-1" d="M220.56,390.77c.59-.13,1.21-.25,1.85-.35s1.43-.21,2.15-.28a31.71,31.71,0,0,1,10.6.61l-.07-.5a32.53,32.53,0,0,0-10.58-.57c-.75.07-1.48.17-2.19.28s-1.2.21-1.78.34Zm-.16-3.48c.59-.13,1.2-.25,1.83-.35s1.39-.2,2.1-.27a30.74,30.74,0,0,1,10.3.59l-.07-.5a31.62,31.62,0,0,0-10.29-.55c-.72.07-1.44.16-2.13.27s-1.19.21-1.76.33Zm-.15-3.61c.59-.14,1.2-.25,1.83-.35s1.34-.2,2-.27a29.63,29.63,0,0,1,10,.59l-.07-.5a30.45,30.45,0,0,0-10-.55c-.7.07-1.39.16-2.06.27s-1.19.21-1.76.33Zm-.13-2.92c.61-.14,1.56-.36,2.13-.45s1.28-.19,1.92-.25a28.39,28.39,0,0,1,9.45.54l-.08-.5a29.14,29.14,0,0,0-9.42-.5c-.67.06-1.32.15-2,.25s-1.44.29-2.06.44Zm-.13-3c.56-.13,1.14-.24,1.74-.34s1.28-.18,1.92-.25a28,28,0,0,1,9.53.57l-.08-.51a29,29,0,0,0-9.5-.52c-.67.07-1.32.15-2,.25s-1.13.2-1.67.32Zm-.11-2.53c.51-.11,1-.21,1.57-.29s1.27-.19,1.92-.25a28.21,28.21,0,0,1,9.42.54l-.07-.5a29,29,0,0,0-9.4-.5c-.67.06-1.33.15-2,.25s-1,.18-1.5.28Z" transform="translate(-8.48 -276.49)"/><path class="cls-10" d="M111.16,438.92l-1.43,3.7,1.45.56a7,7,0,0,0,2.16.59,1.85,1.85,0,0,0,1.07-.32,1.89,1.89,0,0,0,.69-.9,1.78,1.78,0,0,0,0-1.34,2,2,0,0,0-.84-1,14.33,14.33,0,0,0-1.87-.82Zm-6.81,9.84,5-13.07,4.23,1.63a16,16,0,0,1,3.07,1.4,3.64,3.64,0,0,1,1.38,2,4.37,4.37,0,0,1-.21,2.84,4.57,4.57,0,0,1-1.22,1.85,3.86,3.86,0,0,1-1.61.87,4.18,4.18,0,0,1-1.6.09,17.25,17.25,0,0,1-2.81-.86l-1.72-.67L107,449.77Z" transform="translate(-8.48 -276.49)"/><path class="cls-10" d="M124,450.2l-.14-5.55-3.48,4.3Zm3.11,6.93-2.91-1-.12-3.41-5.29-1.82-2.12,2.63-2.84-1,9.71-11.47,2.83,1Z" transform="translate(-8.48 -276.49)"/><path class="cls-10" d="M133.51,450.46l2,.58a10.66,10.66,0,0,0,2.49.53,1.51,1.51,0,0,0,.92-.34,1.88,1.88,0,0,0,.57-.94,1.69,1.69,0,0,0-.05-1.2,1.73,1.73,0,0,0-.88-.82c-.2-.09-.86-.3-2-.61l-2.12-.61Zm-4.95,7L132.42,444l5.72,1.64a10,10,0,0,1,3,1.26,3.28,3.28,0,0,1,1.2,1.74,4.06,4.06,0,0,1,0,2.29,3.77,3.77,0,0,1-1.61,2.25,4.54,4.54,0,0,1-3,.48,6.65,6.65,0,0,1,1.13,1.54,15.74,15.74,0,0,1,.92,2.63l.89,3.1-3.25-.93-1.13-3.5a18.27,18.27,0,0,0-.86-2.38,2.21,2.21,0,0,0-.65-.8,4.94,4.94,0,0,0-1.33-.54l-.55-.16-1.61,5.62Z" transform="translate(-8.48 -276.49)"/><path class="cls-10" d="M145,447.49l2.78.54-1.45,7.44a15.84,15.84,0,0,0-.34,2.32,2.27,2.27,0,0,0,.58,1.52,3,3,0,0,0,1.73.87,2.84,2.84,0,0,0,1.88-.14,2,2,0,0,0,1-1.05,16,16,0,0,0,.57-2.3l1.48-7.61,2.78.54-1.41,7.22a19,19,0,0,1-.9,3.45,4,4,0,0,1-1.17,1.57,4.19,4.19,0,0,1-1.83.8,7.14,7.14,0,0,1-2.73-.09,7.78,7.78,0,0,1-2.9-1,4.31,4.31,0,0,1-1.38-1.49,3.83,3.83,0,0,1-.48-1.68,16.89,16.89,0,0,1,.41-3.54Z" transform="translate(-8.48 -276.49)"/><polygon class="cls-10" points="147.66 187.62 149.6 173.87 152.4 174.26 150.8 185.68 157.76 186.66 157.43 188.99 147.66 187.62"/><path class="cls-10" d="M174.12,452.42l2.81.25-.66,7.55a16.41,16.41,0,0,0-.1,2.35,2.29,2.29,0,0,0,.74,1.45,3.08,3.08,0,0,0,1.82.68,2.85,2.85,0,0,0,1.85-.33,2,2,0,0,0,.84-1.15,16.59,16.59,0,0,0,.33-2.35l.67-7.72,2.82.25-.64,7.32a19.38,19.38,0,0,1-.54,3.53,3.83,3.83,0,0,1-1,1.68,4.23,4.23,0,0,1-1.74,1,6.93,6.93,0,0,1-2.72.19,7.82,7.82,0,0,1-3-.73,4.17,4.17,0,0,1-1.52-1.34,3.83,3.83,0,0,1-.66-1.61,17.2,17.2,0,0,1,0-3.57Z" transform="translate(-8.48 -276.49)"/><polygon class="cls-10" points="178.6 191.13 178.6 177.13 181.35 177.13 187.08 186.48 187.08 177.13 189.71 177.13 189.71 191.13 186.87 191.13 181.23 182 181.23 191.13 178.6 191.13"/><rect class="cls-10" x="200.85" y="453.33" width="2.83" height="14" transform="translate(-24.42 -269.15) rotate(-2)"/><polygon class="cls-10" points="201.7 190.48 195.97 176.76 199.03 176.59 203.11 186.76 206 176.23 208.99 176.07 204.71 190.32 201.7 190.48"/><polygon class="cls-10" points="211.17 189.59 209.47 175.69 219.77 174.43 220.06 176.78 212.56 177.7 212.94 180.78 219.91 179.92 220.2 182.26 213.23 183.12 213.69 186.9 221.46 185.95 221.74 188.29 211.17 189.59"/><path class="cls-10" d="M233.73,455.55l2.06-.4a11.37,11.37,0,0,0,2.46-.65,1.55,1.55,0,0,0,.66-.73,1.73,1.73,0,0,0,.08-1.09,1.68,1.68,0,0,0-.58-1.05,1.75,1.75,0,0,0-1.15-.34c-.24,0-.91.13-2,.35l-2.16.42ZM232.5,464l-2.67-13.74,5.84-1.14a10,10,0,0,1,3.27-.25,3.17,3.17,0,0,1,1.86,1,4.11,4.11,0,0,1,1,2.05,3.78,3.78,0,0,1-.41,2.74,4.51,4.51,0,0,1-2.47,1.79,6.94,6.94,0,0,1,1.7.87,15.06,15.06,0,0,1,2,1.92l2.2,2.36-3.32.64-2.59-2.6a19.41,19.41,0,0,0-1.85-1.73,2.12,2.12,0,0,0-.95-.41,4.63,4.63,0,0,0-1.43.11l-.56.11,1.11,5.74Z" transform="translate(-8.48 -276.49)"/><path class="cls-10" d="M244.41,456.77l2.61-.93a3.31,3.31,0,0,0,1.47,1.73,3,3,0,0,0,2.15.14,3.15,3.15,0,0,0,1.85-1.06,1.73,1.73,0,0,0,.35-1.48,1.26,1.26,0,0,0-.49-.75,2.3,2.3,0,0,0-1.14-.34c-.34,0-1.13-.05-2.34-.05a7.61,7.61,0,0,1-3.43-.57,3.63,3.63,0,0,1-1.93-2.42,3.56,3.56,0,0,1,.1-2.09,3.85,3.85,0,0,1,1.35-1.8,7,7,0,0,1,2.56-1.14,6,6,0,0,1,4.13.16,4.08,4.08,0,0,1,2.1,2.66l-2.71.8a2.44,2.44,0,0,0-1.13-1.32,2.86,2.86,0,0,0-1.85,0,3.23,3.23,0,0,0-1.75,1,1,1,0,0,0-.23.95,1.08,1.08,0,0,0,.62.72,7.22,7.22,0,0,0,2.74.28,13.43,13.43,0,0,1,3.21.24,4,4,0,0,1,1.85,1,4.25,4.25,0,0,1,1.08,2,4.1,4.1,0,0,1-.11,2.35,4.06,4.06,0,0,1-1.45,2,8,8,0,0,1-2.84,1.23,6.08,6.08,0,0,1-4.25-.2,5.38,5.38,0,0,1-2.52-3.06" transform="translate(-8.48 -276.49)"/><rect class="cls-10" x="256.53" y="443.53" width="2.83" height="14" transform="translate(-135.09 -174.71) rotate(-18)"/><polygon class="cls-10" points="258.58 178.29 254.79 167.29 250.86 168.65 250.09 166.41 260.61 162.78 261.38 165.03 257.46 166.38 261.25 177.37 258.58 178.29"/><polygon class="cls-10" points="271.09 173.49 268.79 168.06 260.9 162.6 263.95 161.31 269.15 165.12 269.95 158.76 272.95 157.49 271.39 166.98 273.68 172.38 271.09 173.49"/><path class="cls-6" d="M140.45,359.6h53.17v77c-28.1-11.43-49.31-33.59-53.16-59Z" transform="translate(-8.48 -276.49)"/><path class="cls-9" d="M193.62,359.61H140.28V308.85c20.2,9.07,39.55,4.57,53.34-4.11Z" transform="translate(-8.48 -276.49)"/><path class="cls-7" d="M170.14,401.84c13.44.42,14.91-9.86,13.75-19.37a11.58,11.58,0,0,1,4.85-1.36c2.39,17-9.38,23.82-18.6,20.73m0,0c-13.43.42-14.9-9.86-13.75-19.37a11.54,11.54,0,0,0-4.85-1.36c-2.38,17,9.38,23.82,18.6,20.73m.84.83v5.52h-1.23v-5.52Zm-.73-25.83a29.8,29.8,0,0,0-4.31-3.73,23.74,23.74,0,0,1,5.14-7.95,17.42,17.42,0,0,1,5.3,6.88A38.14,38.14,0,0,0,170.25,376.84Zm9.93-5.69a32.54,32.54,0,0,0-9.17,6.46c7.44,8.2,10,17.08.79,23.53C187.48,401.28,183.39,380.81,180.18,371.15ZM160,370.8c8.74,3.69,26.07,20.89,10.74,30.11C152.48,403,156.62,380.89,160,370.8Z" transform="translate(-8.48 -276.49)"/><path class="cls-7" d="M184.55,347c-4,5-14.69,4.18-17.78,1.23-3.19,3.05-13.47,3.46-17.72-1.21,6.17,14.23,28.68,14.34,35.5,0" transform="translate(-8.48 -276.49)"/><polygon class="cls-7" points="158.53 38.84 158.04 53.22 151.75 40.28 157.15 53.62 146.14 44.35 156.5 54.34 142.67 50.35 156.21 55.26 141.95 57.25 156.31 56.23 144.09 63.84 156.79 57.06 148.73 68.99 157.58 57.63 155.06 71.81 158.53 57.84 161.99 71.81 159.47 57.63 168.32 68.99 160.26 57.06 172.96 63.84 160.74 56.23 175.1 57.25 160.84 55.26 174.38 50.35 160.54 54.34 170.91 44.35 159.9 53.62 165.3 40.28 159.01 53.22 158.53 38.84"/><path class="cls-7" d="M166.8,347.86c.93-1.16,2.32-1.84,2.31-4.53,0-3.21-1.78-7.82-2.25-11.17-.55,3.36-2.05,7.82-2.19,11.15,0,2.2,1,3.06,2.13,4.55" transform="translate(-8.48 -276.49)"/><path class="cls-11" d="M705.64,462.69l-.82-6.9a16.71,16.71,0,0,0,4.21.65,8.06,8.06,0,0,0,3.91-.82,6.45,6.45,0,0,0,2.41-2.29,32.87,32.87,0,0,0,2.25-5.46c.14-.42.36-1,.65-1.8l-16.44-43.45h7.91l9,25.11c1.16,3.19,2.22,6.53,3.14,10a101.1,101.1,0,0,1,3-9.89l9.27-25.27h7.34L725,446.73a87,87,0,0,1-4.13,9.84,14.59,14.59,0,0,1-4.48,5.32,10.66,10.66,0,0,1-6,1.7,14.68,14.68,0,0,1-4.74-.9m-7.11-23.28,1.06,6.49a27,27,0,0,1-5.55.66,12.48,12.48,0,0,1-6.21-1.27,7,7,0,0,1-3.1-3.33c-.6-1.37-.9-4.27-.9-8.67v-25h-5.39v-5.71h5.39V391.87l7.31-4.4v15.15h7.39v5.71h-7.39v25.36a13.05,13.05,0,0,0,.38,4,3.1,3.1,0,0,0,1.27,1.44,4.91,4.91,0,0,0,2.51.53A24.21,24.21,0,0,0,698.53,439.41ZM663.69,446V402.62H671V446Zm0-51.41v-8.47H671v8.47Zm-45,38.46,7.26-1.15a10.18,10.18,0,0,0,3.41,6.71c1.86,1.55,4.46,2.33,7.82,2.33s5.88-.7,7.51-2.07a6.18,6.18,0,0,0,2.45-4.83,4.47,4.47,0,0,0-2.17-3.93c-1-.66-3.51-1.48-7.51-2.49a66.93,66.93,0,0,1-11.21-3.54,10.72,10.72,0,0,1-6.35-9.94,11.07,11.07,0,0,1,1.34-5.36,11.83,11.83,0,0,1,3.61-4.12,15.32,15.32,0,0,1,4.67-2.14,22.05,22.05,0,0,1,6.35-.88,25.12,25.12,0,0,1,9,1.48,12.13,12.13,0,0,1,5.7,4A15.7,15.7,0,0,1,653,413.8l-7.18,1a7.93,7.93,0,0,0-2.84-5.23,10.38,10.38,0,0,0-6.63-1.88q-5.05,0-7.22,1.67a4.88,4.88,0,0,0-2.17,3.92,4.07,4.07,0,0,0,.9,2.58,6.6,6.6,0,0,0,2.82,2c.74.27,2.9.9,6.49,1.87a88.51,88.51,0,0,1,10.87,3.42,11,11,0,0,1,4.85,3.86,10.77,10.77,0,0,1,1.75,6.29,12.42,12.42,0,0,1-2.14,6.92,13.88,13.88,0,0,1-6.19,5,22.38,22.38,0,0,1-9.14,1.77q-8.46,0-12.89-3.51T618.66,433ZM593.42,446V402.62H600v6.56c1.69-3.06,3.25-5.1,4.68-6.07a8.14,8.14,0,0,1,4.71-1.48A14.31,14.31,0,0,1,617,404l-2.53,6.83a10.36,10.36,0,0,0-5.38-1.6,7,7,0,0,0-4.33,1.45,7.83,7.83,0,0,0-2.73,4,28.08,28.08,0,0,0-1.23,8.57V446Zm-41.13-25.86h24.2c-.32-3.64-1.25-6.39-2.77-8.2a11.27,11.27,0,0,0-9.1-4.25,11.67,11.67,0,0,0-8.51,3.39A13.42,13.42,0,0,0,552.29,420.13ZM576.41,432,584,433a18.56,18.56,0,0,1-6.64,10.35Q572.49,447,564.94,447q-9.51,0-15.07-5.85t-5.58-16.44q0-10.95,5.63-17a19.08,19.08,0,0,1,14.62-6.05,18.53,18.53,0,0,1,14.2,5.92q5.52,5.93,5.51,16.66c0,.45,0,1.1,0,2H551.89q.39,7.15,4,10.94a12,12,0,0,0,9.05,3.81,11.24,11.24,0,0,0,6.9-2.13A14,14,0,0,0,576.41,432Zm-59.69,14-16.49-43.37H508l9.3,26c1,2.8,1.93,5.72,2.78,8.74.65-2.29,1.56-5,2.73-8.25l9.64-26.46H540L523.58,446Zm-30.84,0V402.62h7.36V446Zm0-51.41v-8.47h7.36v8.47ZM439.1,446V402.62h6.6v6.16q4.79-7.15,13.8-7.15a18,18,0,0,1,7.2,1.41,11.34,11.34,0,0,1,4.92,3.7,14.33,14.33,0,0,1,2.3,5.43,43.79,43.79,0,0,1,.4,7.15V446H467V419.6a19.94,19.94,0,0,0-.85-6.72,7.1,7.1,0,0,0-3-3.54A9.66,9.66,0,0,0,458,408a12,12,0,0,0-8.11,3c-2.27,2-3.4,5.76-3.4,11.32V446Zm-20.44-59.88h7.93v34.6q0,9-2,14.33a17.35,17.35,0,0,1-7.37,8.63q-5.32,3.34-14,3.34c-5.6,0-10.2-1-13.76-2.9a16.52,16.52,0,0,1-7.63-8.4c-1.53-3.66-2.29-8.65-2.29-15v-34.6h7.92v34.56c0,5.2.49,9,1.45,11.49a11,11,0,0,0,5,5.7,17.25,17.25,0,0,0,8.64,2q8.75,0,12.46-4t3.7-15.22Z" transform="translate(-8.48 -276.49)"/><path class="cls-12" d="M653.54,299.38h17.75v63.78H653.54Zm-6.87,63.78H630.14v-7.48a24.3,24.3,0,0,1-7.45,6.56,19.83,19.83,0,0,1-9.25,2c-4.87,0-8.68-1.46-11.46-4.37s-4.14-7.41-4.14-13.47V317h17.78v25.41c0,2.9.54,5,1.6,6.18a5.75,5.75,0,0,0,4.53,1.83,6.48,6.48,0,0,0,5.2-2.44c1.35-1.63,2-4.54,2-8.75V317h17.7ZM560.17,317h16.56v7.56c1.61-3.27,3.25-5.52,4.95-6.75a10.31,10.31,0,0,1,6.27-1.86,18.71,18.71,0,0,1,8.57,2.44L591,331a13.69,13.69,0,0,0-5-1.31,6.13,6.13,0,0,0-5.38,2.87Q578,336.58,578,347.67v15.49H560.17Zm-23.63,24.27c-2.43.87-5,1.65-7.6,2.31-3.59.95-5.88,1.9-6.83,2.82a4.54,4.54,0,0,0,0,6.69,6.23,6.23,0,0,0,4.28,1.32,11.12,11.12,0,0,0,5.51-1.43,8.84,8.84,0,0,0,3.61-3.5,11.79,11.79,0,0,0,1-5.38Zm-15.35-9.31-16.9-1.78a19,19,0,0,1,2.76-7,14.92,14.92,0,0,1,5.2-4.41,21.19,21.19,0,0,1,6.69-2.1,54.16,54.16,0,0,1,9.22-.74,73.5,73.5,0,0,1,12.77.89,16.35,16.35,0,0,1,8.05,3.73,13.1,13.1,0,0,1,3.58,5.54,20.26,20.26,0,0,1,1.29,6.86v20.4a25.79,25.79,0,0,0,.41,5.11,23.34,23.34,0,0,0,1.81,4.72H539.46a17.89,17.89,0,0,1-1.3-2.72,19.94,19.94,0,0,1-.61-2.94,22.67,22.67,0,0,1-6.92,4.78,28.65,28.65,0,0,1-10.91,1.92q-8.25,0-12.55-3.83a12.14,12.14,0,0,1-4.28-9.43,12.35,12.35,0,0,1,3.09-8.66c2.07-2.27,5.85-3.95,11.39-5q10-2,12.92-2.8a64,64,0,0,0,6.25-2.11c0-2.18-.44-3.7-1.33-4.58s-2.48-1.3-4.75-1.3c-2.9,0-5.07.47-6.52,1.39A7.73,7.73,0,0,0,521.19,331.92Zm-53.56-5.35h4.82c3.8,0,6.46-.65,8-2a6.41,6.41,0,0,0,2.3-5.07,7.08,7.08,0,0,0-2-5.09c-1.32-1.4-3.83-2.09-7.51-2.09h-5.61Zm-19.79-27.19h32.75q10.68,0,16,5.1c3.55,3.38,5.33,8.22,5.33,14.47q0,9.68-5.81,15.11t-17.72,5.43H467.63v23.67H447.84Z" transform="translate(-8.48 -276.49)"/><path class="cls-12" d="M684.15,302.83h1.52a2.43,2.43,0,0,0,1.49-.32,1.05,1.05,0,0,0,.4-.85,1.11,1.11,0,0,0-.19-.62,1.19,1.19,0,0,0-.53-.4,4,4,0,0,0-1.26-.13h-1.43Zm-1.25,4.36v-7.74h2.67a6.7,6.7,0,0,1,2,.21,2,2,0,0,1,.73,3.36,2.37,2.37,0,0,1-1.62.71,2.07,2.07,0,0,1,.66.41,8.53,8.53,0,0,1,1.15,1.54l.95,1.51H687.9l-.69-1.21a6.3,6.3,0,0,0-1.32-1.81,1.59,1.59,0,0,0-1-.26h-.74v3.28Zm3.17-10a6.12,6.12,0,0,0-3,.78,5.55,5.55,0,0,0-2.25,2.23,6,6,0,0,0,0,6,5.69,5.69,0,0,0,2.23,2.23,6,6,0,0,0,6,0,5.54,5.54,0,0,0,2.22-2.23,6,6,0,0,0,0-6A5.55,5.55,0,0,0,689,298,6.14,6.14,0,0,0,686.07,297.2Zm0-1.19a7.37,7.37,0,0,1,3.54.93,6.62,6.62,0,0,1,2.69,2.66,7.23,7.23,0,0,1,0,7.2,6.6,6.6,0,0,1-2.67,2.67,7.24,7.24,0,0,1-7.17,0,6.6,6.6,0,0,1-2.67-2.67,7.23,7.23,0,0,1-1-3.58,7.42,7.42,0,0,1,1-3.62,6.71,6.71,0,0,1,2.7-2.66A7.41,7.41,0,0,1,686.07,296Z" transform="translate(-8.48 -276.49)"/></svg>